<?xml version="1.0" standalone="no"?><!DOCTYPE svg PUBLIC "-//W3C//DTD SVG 1.1//EN" "http://www.w3.org/Graphics/SVG/1.1/DTD/svg11.dtd"><svg t="1575622721191" class="icon" viewBox="0 0 1024 1024" version="1.1" xmlns="http://www.w3.org/2000/svg" p-id="3695" xmlns:xlink="http://www.w3.org/1999/xlink" width="200" height="200"><defs><style type="text/css"></style></defs><path d="M982.135467 945.937067L738.218667 701.986133c-0.648533-0.648533-1.501867-0.887467-2.184534-1.450666 62.464-70.741333 100.488533-163.549867 100.488534-265.1136 0-221.149867-179.9168-401.066667-401.066667-401.066667s-401.066667 179.9168-401.066667 401.066667 179.9168 401.066667 401.066667 401.066666c101.563733 0 194.372267-38.024533 265.1136-100.488533 0.5632 0.699733 0.802133 1.553067 1.450667 2.184533l243.9168 243.950934c4.983467 5.000533 11.554133 7.492267 18.107733 7.492266s13.1072-2.491733 18.107733-7.492266a25.6 25.6 0 0 0-0.017066-36.1984z m-546.696534-160.648534c-192.9216 0-349.866667-156.945067-349.866666-349.866666s156.945067-349.866667 349.866666-349.866667 349.866667 156.945067 349.866667 349.866667-156.945067 349.866667-349.866667 349.866666z" fill="#9C9C9C" p-id="3696"></path></svg>